
<svg version="1.1" xmlns="http://www.w3.org/2000/svg" width="32" height="32" viewBox="0 0 32 32">
<path d="M18.707 15.174c0.061 0.025 0.125 0.036 0.187 0.036 0.198-0 0.385-0.118 0.464-0.313 0.399-0.992 0.101-2.099-0.76-2.82-0.82-0.687-1.899-0.788-2.747-0.257-0.234 0.146-0.305 0.455-0.159 0.689s0.455 0.304 0.689 0.158c0.576-0.36 1.19-0.146 1.574 0.176 0.397 0.333 0.76 0.972 0.475 1.68-0.103 0.256 0.021 0.548 0.277 0.651z"></path>
<path d="M15.962 10.506c1.389-0.554 2.819-0.337 3.83 0.581 1.013 0.921 1.395 2.34 0.996 3.705-0.078 0.265 0.075 0.543 0.339 0.62 0.047 0.014 0.094 0.020 0.141 0.020 0.217 0 0.416-0.142 0.48-0.36 0.507-1.734 0.016-3.545-1.283-4.725-1.3-1.182-3.123-1.469-4.874-0.77-0.256 0.103-0.381 0.394-0.279 0.65s0.394 0.38 0.65 0.279z"></path>
<path d="M12.267 19.543c1.385 1.403 3.096 2.519 4.577 2.986 0.477 0.151 1.081 0.259 1.715 0.259 0.596 0 1.218-0.095 1.787-0.34 0.655-0.282 1.259-0.769 1.615-1.304 0.005-0.008 0.55-0.839 0.362-1.468-0.202-0.688-1.017-1.166-1.82-1.591-1.258-0.711-2.065-0.914-2.992-0.051-0.015 0.014-0.029 0.029-0.043 0.045-0.212 0.028-0.954-0.145-1.775-0.814-0.204-0.166-0.406-0.349-0.602-0.545-0.191-0.192-0.375-0.394-0.545-0.602-0.666-0.82-0.843-1.557-0.813-1.773 0.017-0.014 0.033-0.029 0.047-0.045 0.86-0.926 0.657-1.734-0.047-2.98-0.43-0.815-0.907-1.628-1.597-1.833-0.636-0.185-1.462 0.359-1.47 0.364-0.536 0.356-1.023 0.959-1.304 1.614-0.502 1.172-0.372 2.577-0.082 3.502 0.467 1.481 1.583 3.192 2.986 4.577zM10.281 11.859c0.201-0.469 0.57-0.93 0.939-1.176 0.194-0.13 0.51-0.239 0.618-0.239 0.005 0 0.010 0 0.014 0.001 0.342 0.102 0.816 1.002 1.002 1.353 0.661 1.17 0.57 1.406 0.23 1.779-0.17 0.127-0.286 0.323-0.331 0.561-0.124 0.661 0.284 1.709 1.017 2.611 0.191 0.234 0.397 0.462 0.612 0.677 0.22 0.22 0.448 0.426 0.677 0.613 0.897 0.732 1.947 1.139 2.608 1.018 0.293-0.054 0.465-0.198 0.565-0.331 0.388-0.355 0.618-0.426 1.789 0.235 0.339 0.179 1.24 0.655 1.339 0.987 0.014 0.102-0.099 0.438-0.234 0.641-0.246 0.369-0.708 0.737-1.178 0.94-0.922 0.397-2.087 0.273-2.805 0.046-1.334-0.42-2.893-1.443-4.168-2.736-0.001-0.002-0.003-0.003-0.005-0.005-1.293-1.276-2.316-2.834-2.736-4.167-0.225-0.719-0.349-1.886 0.046-2.807z"></path>
<path d="M23.877 0.5h-15.755c-0.971 0-1.762 0.79-1.762 1.762v27.477c0 0.971 0.791 1.762 1.762 1.762h15.755c0.971 0 1.762-0.79 1.762-1.762v-27.477c0-0.971-0.791-1.762-1.762-1.762zM19.635 1.5v0.565c0 0.312-0.253 0.565-0.564 0.565h-6.142c-0.311 0-0.564-0.253-0.564-0.565v-0.565h7.271zM8.123 1.5h3.242v0.565c0 0.863 0.702 1.565 1.564 1.565h6.142c0.863 0 1.564-0.702 1.564-1.565v-0.565h3.242c0.42 0 0.762 0.342 0.762 0.762v25.587h-17.278v-25.587c0-0.42 0.342-0.762 0.762-0.762zM23.877 30.5h-15.755c-0.42 0-0.762-0.342-0.762-0.762v-0.89h17.278v0.89c0 0.42-0.342 0.762-0.762 0.762z"></path>
</svg>
